<svg width="279" height="213" viewBox="0 0 279 213" fill="none" xmlns="http://www.w3.org/2000/svg">
<path d="M168 0L188 1.00472L206 5.02358L236 22.1038L256 40.1887L271 62.2925L277 77.3632V92.434L279 94.4434L277 129.608L270 148.698L261 161.759L236 182.858L220 191.901L190 204.962L164 213L129 210.991L113 205.967L96 196.925L89 195.92L75 182.858L73 177.835L77 162.764L83 153.722L92 147.693L88 142.67L86 133.627L77 134.632L64 130.613L62 132.623L63 137.646L57 147.693L45 152.717H36L35 149.703L17 142.67L10 134.632L0 115.542V102.481L7 85.4009L13 77.3632L21 70.3302L29 68.3208L28 51.2406L26 49.2311L32 44.2075L36 42.1981L43 43.2028L66 51.2406L76 47.2217L89 30.1415L109 15.0708L135 6.0283L168 0Z"/>
</svg>
