<svg width="286" height="217" viewBox="0 0 286 217" fill="none" xmlns="http://www.w3.org/2000/svg">
<path d="M178 0L197 1L208 4L233 16L259 39L276 66L285 101L286 129L278 152L269 167L262 174L256 176L254 170L212 205L207 203L208 200L206 199L192 208L156 217L153 215V212L157 209L156 207L149 209L127 207L92 186L90 182L94 179L91 176L81 175L75 171L90 153L100 147L96 146L93 142L92 133H79L68 129L64 141L58 149L50 151L39 149L33 154H30L27 145L17 146L14 144L17 138L9 130V123L0 115L5 112L8 88L22 73L29 69L27 52L34 40L47 37L67 49L81 44L94 27L120 13L156 2L178 0Z" />
</svg>
