<svg width="312" height="292" viewBox="0 0 312 292" fill="none" xmlns="http://www.w3.org/2000/svg">
<path d="M250 0L255 1L258 13L269 21L282 37L298 48L302 47L312 50V54L302 59L287 79L284 86L285 100L282 101L280 107L269 109L290 114L295 118V128L289 135L311 155L312 163L303 173L310 185L307 187L296 186L294 189L297 199V211L290 215L278 237L258 258L231 276L201 289L180 292L151 286L135 279L132 280L126 277L98 272L95 269L96 262L100 260L107 248L121 237L110 222L109 212L91 214L84 211L82 224L77 231L70 235L52 234L41 229L27 216L19 200L17 184L23 170L17 161L19 155L16 153L5 156L0 154L5 147L12 144L7 136V128L13 126L22 130L29 128L31 126L29 114H42L56 119L69 127L78 121L101 116V111L89 100L70 94L67 87L70 85L75 66L68 54L58 47L50 46L49 39H55L83 29L106 14H111L114 7L120 4L132 15L127 32L129 58L135 71L146 84L155 87L164 84L175 70L180 68L185 69L191 79L200 71L213 69L215 70L214 76L216 79L234 53L242 32V3L250 0Z"/>
</svg>
