<svg width="688" height="718" viewBox="0 0 688 718" fill="none" xmlns="http://www.w3.org/2000/svg">
<path d="M408.594 0H425.619L442.643 12L441.642 14L444.646 16L443.645 19L450.655 38V49L453.659 52L457.665 50L460.67 57L475.691 67L525.764 94L619.901 152H623.907L628.914 136L637.927 127L644.937 124L650.946 123L651.948 126L668.972 129L679.988 138L684.996 157V216L688 243L685.997 304V319L688 320V465L674.981 477L664.966 478L656.955 476L614.894 505L605.881 509L595.866 510L592.862 516L574.835 534L559.814 541L541.787 556L522.76 563H512.745L485.706 584L427.622 619L416.606 628L397.578 636L393.572 641L387.563 643L366.533 659L330.48 700L322.469 704L311.453 701L298.434 683L296.431 689L297.432 703L295.429 706L282.41 717L269.392 718L202.294 672L151.22 644L136.198 638L41.0597 575L4.00582 554L2.00291 549V467L0 452L2.00291 409L4.00582 408V403L12.0175 397L23.0335 392L29.0422 393L42.0611 381L86.1252 352L173.252 301L201.293 287L205.298 274L219.319 253L241.351 237L286.416 219L295.429 218L297.432 221L312.454 225L331.482 211L389.566 182L388.565 105L391.569 21L394.573 12L408.594 0Z" />
</svg>
