<svg width="177" height="273" viewBox="0 0 177 273" fill="none" xmlns="http://www.w3.org/2000/svg">
<path d="M69.392 0L109.619 3L133.756 9L134.761 12L145.824 15L168.955 35L177 61L175.994 95L169.96 106L160.909 116L162.92 192L152.864 204L138.784 206L130.739 198L128.727 175L129.733 145L126.716 140L127.722 138L106.602 142L110.625 255L107.608 267L97.5511 273H87.4943L74.4205 269V262L71.4034 258L70.3977 250L72.4091 249L69.392 231L70.3977 142L43.2443 134L44.25 196L40.2273 201L30.1705 204L17.0966 201L11.0625 195L10.0568 189L13.0739 117L2.01136 105L0 98V55L10.0568 30L27.1534 14L43.2443 7L69.392 0Z"/>
</svg>
