<svg width="223" height="300" viewBox="0 0 223 300" fill="none" xmlns="http://www.w3.org/2000/svg">
<path d="M97 0L108 5L114 11L124 10L134 14L137 7L141 6L145 9L151 21L157 25L164 21L177 20L182 24L179 38L196 53L209 60L214 66L213 75L207 81L186 85L188 102L185 116L173 129L181 141L186 168L217 187L222 194L223 218L221 220L220 235L212 250L202 259L152 290L131 299L109 300L102 297L99 298L73 287L19 255L7 245L0 231L4 189L17 177L55 157L57 136L63 121L69 113L65 101L57 91L56 79L58 68L70 50L63 48L54 40L50 29L51 20L58 12L89 15L90 5L97 0Z" fill="none"/>
</svg>
