<svg width="223" height="299" viewBox="0 0 223 299" fill="none" xmlns="http://www.w3.org/2000/svg">
<path d="M122 0H128L133 4L134 14L165 11L172 19L173 28L169 39L160 47L153 49L165 67L167 78L166 90L158 100L161 102L168 97L173 106H178L194 116L203 127L204 146L217 150V153L197 171L212 180L220 190L223 230L216 244L204 254L150 286L124 297L121 296L114 299L92 298L71 289L21 258L11 249L3 234L2 219L0 217L1 193L6 186L37 167L46 136L51 129L38 115L35 101L37 84L16 80L10 74L9 65L14 59L27 52L44 37L41 23L46 19L59 20L66 24L72 20L78 8L82 5L86 6L89 13L99 9L109 10L122 0Z" fill="none"/>
</svg>
