<svg width="357" height="242" viewBox="0 0 357 242" fill="none" xmlns="http://www.w3.org/2000/svg">
<path d="M236 0L266 2L285 6L296 11L307 23L314 40V53L301 65L337 89L346 100L355 118L357 127L356 145L350 157L342 166L325 177L305 182H292L279 178L270 179L262 175L254 186L252 196L245 210L222 230L206 238L178 242L154 239V237L141 230L129 214L121 194V189L118 186L111 190L97 191L86 195H70L68 197L51 194L31 187L8 171L1 155L0 146V122L3 115L15 95L29 80L46 67L60 60L72 57L68 52L67 45L75 22L100 7L124 1L153 3L170 9L183 18H190L206 9L236 0Z"/>
</svg>
