<svg width="445" height="508" viewBox="0 0 445 508" fill="none" xmlns="http://www.w3.org/2000/svg">
<path d="M189 0L219 6L243 21L257 44L265 77L275 89L338 129L341 133L382 160L394 165L404 174L431 189L436 196L439 207L440 219L438 221L442 249L445 333L442 340L437 380L431 387L425 389L414 386L408 379L403 365L339 405L248 452L235 460L234 476L236 477L233 482L234 487L231 498L224 506L217 508L204 503L198 497L191 475V462L189 459L162 444L114 412L54 379L52 381L53 395L49 401L39 404L30 401L19 378L3 332L0 299L2 293L0 202L8 186L35 174L33 157L34 103L41 81L60 59L76 48L131 24L135 20H139L137 18L139 17L142 19L171 4L189 0Z" />
</svg>
